<svg width="812" height="776" viewBox="0 0 812 776" fill="none" xmlns="http://www.w3.org/2000/svg">
<path fill-rule="evenodd" clip-rule="evenodd" d="M400.807 364.939L400.807 245.696C382.262 243.467 381.198 207.062 406 207.063C431.395 207.063 429.738 242.724 411.193 245.696L411.193 364.939C415.814 365.616 419.781 367.186 423.092 369.397L430.48 359.738H447.171C447.913 359.738 461.636 342.65 462.378 342.65H495.389L529.142 308.103V285.815C510.596 283.586 509.532 247.182 534.335 247.182C559.729 247.182 558.073 282.843 539.527 285.815V309.589L499.098 351.566H466.829C466.087 351.566 452.364 367.911 451.622 367.911H434.56L429.367 375.254C432.4 379.165 434.333 383.835 435.165 388.713H438.64C439.382 388.713 441.236 385.37 441.978 385.37H507.629C507.629 385.37 521.689 371.181 531.529 361.327C519.989 346.617 544.939 320.121 562.477 337.686C580.433 355.67 554.084 379.714 538.872 368.681L513.926 394.657H447.339C447.171 394.657 491.68 433.154 491.68 433.154H511.056L515.134 437.238L525.783 447.903C537.18 441.06 553.914 457.819 541.76 469.991C529.607 482.164 512.113 466.165 518.946 454.75L506.502 442.286H487.229L438.492 399.523H435.228C434.71 402.786 433.701 405.963 432.201 408.888L502.54 480.013L501.84 505.646C520.385 508.617 522.042 544.279 496.647 544.279C471.845 544.279 472.909 507.874 491.455 505.646C491.455 491.709 491.53 482.12 491.53 482.12L426.626 416.376C422.739 420.06 417.595 422.703 411.193 423.632V555.133C429.738 558.105 431.395 593.766 406 593.766C381.198 593.767 382.262 557.362 400.807 555.133L400.807 423.632C394.405 422.703 389.261 420.06 385.374 416.376L320.47 482.12C320.47 482.12 320.546 491.709 320.546 505.646C339.091 507.874 340.156 544.279 315.353 544.279C289.958 544.279 291.615 508.617 310.16 505.646L309.46 480.013L379.799 408.888C378.299 405.963 377.29 402.786 376.772 399.523H373.508L324.771 442.286H305.499L293.054 454.75C299.887 466.165 282.393 482.164 270.24 469.991C258.086 457.819 274.82 441.06 286.218 447.903L296.867 437.238L300.944 433.154H320.32C320.32 433.154 364.829 394.657 364.662 394.657H298.074L273.128 368.681C257.916 379.714 231.567 355.67 249.523 337.686C267.061 320.121 292.011 346.617 280.472 361.327C290.311 371.181 304.371 385.37 304.371 385.37H370.022C370.764 385.37 372.618 388.713 373.36 388.713H376.835C377.667 383.835 379.6 379.165 382.633 375.254L377.44 367.911H360.378C359.637 367.911 345.913 351.566 345.171 351.566H312.902L272.473 309.589V285.815C253.927 283.586 252.863 247.182 277.666 247.182C303.06 247.182 301.404 282.843 282.858 285.815V308.103L316.611 342.65H349.622C350.364 342.65 364.087 359.738 364.829 359.738H381.52L388.908 369.397C392.22 367.186 396.186 365.616 400.807 364.939ZM406 412.116C429.738 412.116 429.738 376.455 406 376.455C382.262 376.455 382.262 412.116 406 412.116ZM406.371 234.552C398.077 234.552 398.077 219.321 406.371 219.321C414.666 219.321 414.666 234.552 406.371 234.552ZM406.371 566.277C398.077 566.277 398.077 581.508 406.371 581.508C414.666 581.508 414.666 566.277 406.371 566.277ZM497.018 516.79C488.724 516.79 488.724 532.02 497.018 532.02C505.313 532.02 505.313 516.79 497.018 516.79ZM528.541 456.751C524.742 460.555 531.865 467.689 535.663 463.884C539.121 460.421 531.998 453.288 528.541 456.751ZM543.331 357.387C537.466 351.512 548.219 340.743 554.084 346.617C559.949 352.491 549.196 363.261 543.331 357.387ZM534.705 274.671C526.411 274.671 526.411 259.44 534.705 259.44C543 259.44 543 274.671 534.705 274.671ZM314.982 516.79C323.276 516.79 323.276 532.02 314.982 532.02C306.687 532.02 306.688 516.79 314.982 516.79ZM283.46 456.751C287.258 460.555 280.135 467.689 276.337 463.884C272.879 460.421 280.002 453.288 283.46 456.751ZM268.669 357.387C274.534 351.512 263.781 340.743 257.916 346.617C252.051 352.491 262.804 363.261 268.669 357.387ZM277.295 274.671C285.589 274.671 285.589 259.44 277.295 259.44C269 259.44 269 274.671 277.295 274.671Z" fill="url(#paint0_linear_5_64)"/>
<path fill-rule="evenodd" clip-rule="evenodd" d="M388.938 439.671V463.374C388.938 464.452 374.413 475.225 374.413 476.303V510.74C387.304 513.973 386.23 537.674 369.042 537.674C351.854 537.674 351.854 513.973 364.745 510.74V495.657V473.071C364.745 471.994 379.27 461.22 379.27 460.142V439.671C379.27 438.592 388.938 438.592 388.938 439.671ZM369.042 518.949C374.413 518.949 374.413 529.038 369.042 529.038C364.152 529.038 364.152 518.949 369.042 518.949Z" fill="url(#paint1_linear_5_64)"/>
<path fill-rule="evenodd" clip-rule="evenodd" d="M423.062 439.671V463.374C423.062 464.452 437.587 475.225 437.587 476.303V510.74C424.696 513.973 425.77 537.674 442.958 537.674C460.146 537.674 460.146 513.973 447.255 510.74V495.657V473.071C447.255 471.994 432.73 461.22 432.73 460.142V439.671C432.73 438.592 423.062 438.592 423.062 439.671ZM442.959 518.949C437.587 518.949 437.587 529.038 442.959 529.038C447.848 529.038 447.848 518.949 442.959 518.949Z" fill="url(#paint2_linear_5_64)"/>
<path fill-rule="evenodd" clip-rule="evenodd" d="M491.911 403.958H538.959C542.232 390.763 566.233 391.862 566.233 409.456C566.233 427.05 542.232 427.05 538.959 413.854H523.685H491.911C491.116 413.854 491.101 403.958 491.911 403.958ZM547.272 409.457C547.272 403.958 557.488 403.958 557.488 409.457C557.488 414.462 547.272 414.462 547.272 409.457Z" fill="url(#paint3_linear_5_64)"/>
<path d="M449.674 334.612C452.372 337.832 454.718 336.546 456.325 335.195L490.078 306.829C491.686 305.479 493.358 303.388 490.66 300.168C487.963 296.949 485.617 298.235 484.009 299.586L450.256 327.951C448.649 329.302 446.977 331.393 449.674 334.612Z" fill="url(#paint4_linear_5_64)"/>
<path fill-rule="evenodd" clip-rule="evenodd" d="M420.836 349.642V325.939C420.836 324.862 460.583 292.543 460.583 291.465V266.686C447.692 263.453 448.767 239.752 465.954 239.752C483.142 239.753 483.142 263.453 470.251 266.686V281.769V294.697C470.251 295.774 430.505 328.094 430.505 329.171V349.642C430.505 350.721 420.836 350.721 420.836 349.642ZM465.955 258.477C460.583 258.477 460.583 248.388 465.955 248.388C470.845 248.388 470.845 258.477 465.955 258.477Z" fill="url(#paint5_linear_5_64)"/>
<path fill-rule="evenodd" clip-rule="evenodd" d="M391.164 349.642V325.939C391.164 324.862 351.417 292.543 351.417 291.465V266.686C364.308 263.453 363.234 239.752 346.046 239.752C328.858 239.753 328.858 263.453 341.749 266.686V281.769V294.697C341.749 295.774 381.496 328.094 381.496 329.171V349.642C381.496 350.721 391.164 350.721 391.164 349.642ZM346.045 258.477C351.417 258.477 351.417 248.388 346.045 248.388C341.155 248.388 341.155 258.477 346.045 258.477Z" fill="url(#paint6_linear_5_64)"/>
<path d="M362.326 334.612C359.629 337.832 357.282 336.546 355.675 335.195L321.922 306.829C320.314 305.479 318.642 303.388 321.34 300.168C324.037 296.949 326.383 298.235 327.991 299.586L361.744 327.951C363.351 329.302 365.023 331.393 362.326 334.612Z" fill="url(#paint7_linear_5_64)"/>
<path fill-rule="evenodd" clip-rule="evenodd" d="M320.089 403.958H273.041C269.768 390.763 245.767 391.862 245.767 409.456C245.768 427.05 269.768 427.05 273.041 413.854H288.315H320.089C320.884 413.854 320.9 403.958 320.089 403.958ZM264.729 409.457C264.729 403.958 254.513 403.958 254.513 409.457C254.513 414.462 264.729 414.462 264.729 409.457Z" fill="url(#paint8_linear_5_64)"/>
<path fill-rule="evenodd" clip-rule="evenodd" d="M608.975 350.395C609.258 343.022 610 219.354 610 219.354C510.123 221.621 468.486 208.347 406 161C343.514 208.347 301.877 221.621 202 219.354C202 219.354 202.742 343.022 203.025 350.395C203.025 362.68 210.947 410.125 219.427 437.415C226.744 460.961 234.413 482.87 249.156 506.006C292.211 573.575 356.794 623.739 406 635C455.206 623.739 519.789 573.575 562.844 506.006C577.587 482.87 585.256 460.961 592.573 437.415C601.053 410.125 608.975 362.68 608.975 350.395ZM598.873 228.783C598.873 228.783 597.903 345.862 597.903 352.635C597.903 364.246 590.414 409.088 582.396 434.881C575.478 457.136 568.228 477.843 554.289 499.71C513.582 563.571 452.522 610.983 406 621.627C359.478 610.983 298.418 563.571 257.711 499.71C243.772 477.843 236.522 457.136 229.604 434.881C221.586 409.088 214.096 364.246 214.096 352.635C214.096 345.862 213.127 228.783 213.127 228.783C307.557 230.925 346.922 218.38 406 173.63C465.078 218.38 504.443 230.925 598.873 228.783Z" fill="url(#paint9_linear_5_64)"/>
<path d="M141 50.0742V125H290.858V104.97H161.03V70.1039H290.858V50.0742H141Z" fill="url(#paint10_linear_5_64)"/>
<path d="M290.858 20.0297H141V10.3858C141 3.7092 143.967 0 151.386 0H290.858V20.0297Z" fill="url(#paint11_linear_5_64)"/>
<path d="M445.167 20.0297H325.726V10.3858C325.726 3.7092 328.693 0 336.112 0H445.167C483.002 -3.07198e-05 491.55 52.7582 468.536 69.3618C480.406 76.7802 480.406 84.1989 480.406 100.519V125H455.553V90.1336C455.553 83.0861 449.247 80.1188 440.345 80.1187H345.756V125H325.726V60.089H445.167C462.601 56.7508 462.601 23.7389 445.167 20.0297Z" fill="url(#paint12_linear_5_64)"/>
<path d="M634.715 20.0299H515.274V10.386C515.274 3.70943 518.241 0.000226392 525.66 0.000226392H634.715C680.34 0.000226392 684.791 80.1187 629.893 80.1189H535.304V125H515.274V60.0893H634.715C652.149 56.751 652.149 23.7391 634.715 20.0299Z" fill="url(#paint13_linear_5_64)"/>
<path d="M755.676 756.076V711.431H745.824H735.971V756.076H679.636V776H812V756.076H755.676Z" fill="url(#paint14_linear_5_64)"/>
<path d="M679.636 686.341V669H812V686.341H679.636Z" fill="url(#paint15_linear_5_64)"/>
<path d="M529.238 686.341V669H661.601V686.341H529.238Z" fill="url(#paint16_linear_5_64)"/>
<path d="M605.278 776V711.431H595.425H585.573V776H605.278Z" fill="url(#paint17_linear_5_64)"/>
<path d="M410.087 775.262L467.715 684.497L496.475 730.248H473.663C461.394 730.248 455.074 739.103 455.074 750.172H509.417L525.714 775.262H550.253L482.958 669H452.843L385.177 775.262H410.087Z" fill="url(#paint18_linear_5_64)"/>
<path d="M245.383 686.41H345.901C360.572 689.498 360.572 719.928 345.901 722.707H245.383V775.262L265.088 775.262V740.855L341.842 740.855C349.334 740.855 354.641 742.587 354.641 748.454V775.262H375.556V758.574C375.556 744.989 375.556 738.076 365.567 731.901C384.935 718.081 377.742 669 345.901 669H254.124C247.88 669 245.383 672.087 245.383 677.645V686.41Z" fill="url(#paint19_linear_5_64)"/>
<path d="M95.1788 686.027H197.927C212.924 689.18 212.924 720.195 197.927 723.033H95.1788V749.148V775.262H114.884V740.579H193.778C241.004 740.579 237.175 669 197.927 669H104.113C97.7316 669 95.1788 672.153 95.1788 677.829V686.027Z" fill="url(#paint20_linear_5_64)"/>
<path d="M44.9869 716.228V686.341H30.1152V716.228H0V730.986H30.1152V760.872H44.9869V730.986H75.102V716.228H44.9869Z" fill="url(#paint21_linear_5_64)"/>
<defs>
<linearGradient id="paint0_linear_5_64" x1="506.13" y1="161" x2="506.13" y2="635" gradientUnits="userSpaceOnUse">
<stop stop-color="#FF8328"/>
<stop offset="0.9" stop-color="#1B3B4B"/>
<stop offset="1" stop-color="#1B3B4B"/>
</linearGradient>
<linearGradient id="paint1_linear_5_64" x1="506.13" y1="161" x2="506.13" y2="635" gradientUnits="userSpaceOnUse">
<stop stop-color="#FF8328"/>
<stop offset="0.9" stop-color="#1B3B4B"/>
<stop offset="1" stop-color="#1B3B4B"/>
</linearGradient>
<linearGradient id="paint2_linear_5_64" x1="506.13" y1="161" x2="506.13" y2="635" gradientUnits="userSpaceOnUse">
<stop stop-color="#FF8328"/>
<stop offset="0.9" stop-color="#1B3B4B"/>
<stop offset="1" stop-color="#1B3B4B"/>
</linearGradient>
<linearGradient id="paint3_linear_5_64" x1="506.13" y1="161" x2="506.13" y2="635" gradientUnits="userSpaceOnUse">
<stop stop-color="#FF8328"/>
<stop offset="0.9" stop-color="#1B3B4B"/>
<stop offset="1" stop-color="#1B3B4B"/>
</linearGradient>
<linearGradient id="paint4_linear_5_64" x1="506.13" y1="161" x2="506.13" y2="635" gradientUnits="userSpaceOnUse">
<stop stop-color="#FF8328"/>
<stop offset="0.9" stop-color="#1B3B4B"/>
<stop offset="1" stop-color="#1B3B4B"/>
</linearGradient>
<linearGradient id="paint5_linear_5_64" x1="506.13" y1="161" x2="506.13" y2="635" gradientUnits="userSpaceOnUse">
<stop stop-color="#FF8328"/>
<stop offset="0.9" stop-color="#1B3B4B"/>
<stop offset="1" stop-color="#1B3B4B"/>
</linearGradient>
<linearGradient id="paint6_linear_5_64" x1="506.13" y1="161" x2="506.13" y2="635" gradientUnits="userSpaceOnUse">
<stop stop-color="#FF8328"/>
<stop offset="0.9" stop-color="#1B3B4B"/>
<stop offset="1" stop-color="#1B3B4B"/>
</linearGradient>
<linearGradient id="paint7_linear_5_64" x1="506.13" y1="161" x2="506.13" y2="635" gradientUnits="userSpaceOnUse">
<stop stop-color="#FF8328"/>
<stop offset="0.9" stop-color="#1B3B4B"/>
<stop offset="1" stop-color="#1B3B4B"/>
</linearGradient>
<linearGradient id="paint8_linear_5_64" x1="506.13" y1="161" x2="506.13" y2="635" gradientUnits="userSpaceOnUse">
<stop stop-color="#FF8328"/>
<stop offset="0.9" stop-color="#1B3B4B"/>
<stop offset="1" stop-color="#1B3B4B"/>
</linearGradient>
<linearGradient id="paint9_linear_5_64" x1="506.13" y1="161" x2="506.13" y2="635" gradientUnits="userSpaceOnUse">
<stop stop-color="#FF8328"/>
<stop offset="0.9" stop-color="#1B3B4B"/>
<stop offset="1" stop-color="#1B3B4B"/>
</linearGradient>
<linearGradient id="paint10_linear_5_64" x1="535.325" y1="0" x2="535.325" y2="125" gradientUnits="userSpaceOnUse">
<stop stop-color="#FF8328"/>
<stop offset="0.9" stop-color="#1B3B4B"/>
<stop offset="1" stop-color="#1B3B4B"/>
</linearGradient>
<linearGradient id="paint11_linear_5_64" x1="535.325" y1="0" x2="535.325" y2="125" gradientUnits="userSpaceOnUse">
<stop stop-color="#FF8328"/>
<stop offset="0.9" stop-color="#1B3B4B"/>
<stop offset="1" stop-color="#1B3B4B"/>
</linearGradient>
<linearGradient id="paint12_linear_5_64" x1="535.325" y1="0" x2="535.325" y2="125" gradientUnits="userSpaceOnUse">
<stop stop-color="#FF8328"/>
<stop offset="0.9" stop-color="#1B3B4B"/>
<stop offset="1" stop-color="#1B3B4B"/>
</linearGradient>
<linearGradient id="paint13_linear_5_64" x1="535.325" y1="0" x2="535.325" y2="125" gradientUnits="userSpaceOnUse">
<stop stop-color="#FF8328"/>
<stop offset="0.9" stop-color="#1B3B4B"/>
<stop offset="1" stop-color="#1B3B4B"/>
</linearGradient>
<linearGradient id="paint14_linear_5_64" x1="605.278" y1="669" x2="605.278" y2="776" gradientUnits="userSpaceOnUse">
<stop stop-color="#FF8328"/>
<stop offset="0.9" stop-color="#1B3B4B"/>
<stop offset="1" stop-color="#1B3B4B"/>
</linearGradient>
<linearGradient id="paint15_linear_5_64" x1="605.278" y1="669" x2="605.278" y2="776" gradientUnits="userSpaceOnUse">
<stop stop-color="#FF8328"/>
<stop offset="0.9" stop-color="#1B3B4B"/>
<stop offset="1" stop-color="#1B3B4B"/>
</linearGradient>
<linearGradient id="paint16_linear_5_64" x1="605.278" y1="669" x2="605.278" y2="776" gradientUnits="userSpaceOnUse">
<stop stop-color="#FF8328"/>
<stop offset="0.9" stop-color="#1B3B4B"/>
<stop offset="1" stop-color="#1B3B4B"/>
</linearGradient>
<linearGradient id="paint17_linear_5_64" x1="605.278" y1="669" x2="605.278" y2="776" gradientUnits="userSpaceOnUse">
<stop stop-color="#FF8328"/>
<stop offset="0.9" stop-color="#1B3B4B"/>
<stop offset="1" stop-color="#1B3B4B"/>
</linearGradient>
<linearGradient id="paint18_linear_5_64" x1="605.278" y1="669" x2="605.278" y2="776" gradientUnits="userSpaceOnUse">
<stop stop-color="#FF8328"/>
<stop offset="0.9" stop-color="#1B3B4B"/>
<stop offset="1" stop-color="#1B3B4B"/>
</linearGradient>
<linearGradient id="paint19_linear_5_64" x1="605.278" y1="669" x2="605.278" y2="776" gradientUnits="userSpaceOnUse">
<stop stop-color="#FF8328"/>
<stop offset="0.9" stop-color="#1B3B4B"/>
<stop offset="1" stop-color="#1B3B4B"/>
</linearGradient>
<linearGradient id="paint20_linear_5_64" x1="605.278" y1="669" x2="605.278" y2="776" gradientUnits="userSpaceOnUse">
<stop stop-color="#FF8328"/>
<stop offset="0.9" stop-color="#1B3B4B"/>
<stop offset="1" stop-color="#1B3B4B"/>
</linearGradient>
<linearGradient id="paint21_linear_5_64" x1="605.278" y1="669" x2="605.278" y2="776" gradientUnits="userSpaceOnUse">
<stop stop-color="#FF8328"/>
<stop offset="0.9" stop-color="#1B3B4B"/>
<stop offset="1" stop-color="#1B3B4B"/>
</linearGradient>
</defs>
</svg>
