<svg width="37" height="37" viewBox="0 0 37 37" fill="none" xmlns="http://www.w3.org/2000/svg">
<g id="react-icons/RxExit">
<path id="Vector" fill-rule="evenodd" clip-rule="evenodd" d="M7.40002 2.46667C6.0377 2.46667 4.93335 3.57105 4.93335 4.93334V32.0667C4.93335 33.429 6.03773 34.5333 7.40002 34.5333H25.9C26.5811 34.5333 27.1334 33.9811 27.1334 33.3C27.1334 32.619 26.5811 32.0667 25.9 32.0667H7.40002V4.93334H25.9C26.5811 4.93334 27.1334 4.38115 27.1334 3.70001C27.1334 3.01886 26.5811 2.46667 25.9 2.46667H7.40002ZM31.0889 12.0779C30.6072 11.5963 29.8262 11.5963 29.3445 12.0779C28.863 12.5596 28.863 13.3405 29.3445 13.8221L32.7892 17.2667H16.0333C15.3522 17.2667 14.8 17.8189 14.8 18.5C14.8 19.1812 15.3522 19.7333 16.0333 19.7333H32.7892L29.3445 23.1779C28.863 23.6596 28.863 24.4405 29.3445 24.9222C29.8262 25.4037 30.6072 25.4037 31.0889 24.9222L36.6389 19.3721C37.1204 18.8905 37.1204 18.1096 36.6389 17.6279L31.0889 12.0779Z" fill="#D5D0D8"/>
</g>
</svg>
