<svg width="80" height="80" viewBox="0 0 80 80" fill="none" xmlns="http://www.w3.org/2000/svg">
<g id="react-icons/RxAvatar">
<path id="Vector" fill-rule="evenodd" clip-rule="evenodd" d="M4.67737 39.9994C4.67737 20.4917 20.4915 4.67758 39.9992 4.67758C59.5066 4.67758 75.321 20.4917 75.321 39.9994C75.321 59.5067 59.5066 75.3211 39.9992 75.3211C20.4915 75.3211 4.67737 59.5067 4.67737 39.9994ZM39.9992 9.74422C23.2897 9.74422 9.74401 23.2899 9.74401 39.9994C9.74401 47.8505 12.7346 55.0032 17.6387 60.3803C22.3506 53.0197 30.6036 48.1333 40.0012 48.1333C49.3976 48.1333 57.6496 53.0185 62.3621 60.3776C67.2645 55.0011 70.2544 47.8492 70.2544 39.9994C70.2544 23.2899 56.7082 9.74422 39.9992 9.74422ZM58.5696 63.8864C54.8474 57.4907 47.9237 53.2 40.0012 53.2C32.0777 53.2 25.1532 57.4917 21.4317 63.8885C26.5574 67.8784 33.0008 70.2544 39.9992 70.2544C46.9987 70.2544 53.4432 67.8773 58.5696 63.8864ZM27.4666 34.6926C27.4666 27.7707 33.0779 22.1593 39.9999 22.1593C46.9219 22.1593 52.5332 27.7707 52.5332 34.6926C52.5332 41.6146 46.9219 47.226 39.9999 47.226C33.0779 47.226 27.4666 41.6146 27.4666 34.6926ZM39.9999 27.226C35.8762 27.226 32.5332 30.5689 32.5332 34.6926C32.5332 38.8164 35.8762 42.1593 39.9999 42.1593C44.1236 42.1593 47.4666 38.8164 47.4666 34.6926C47.4666 30.5689 44.1236 27.226 39.9999 27.226Z" fill="#FF951A"/>
</g>
</svg>
